<svg xmlns="http://www.w3.org/2000/svg" xmlns:xlink="http://www.w3.org/1999/xlink" width="500" zoomAndPan="magnify" viewBox="0 0 375 374.999991" height="500" preserveAspectRatio="xMidYMid meet" version="1.0"><defs><g/><clipPath id="fa2f5ac3d6"><path d="M 12.089844 11.742188 L 363.605469 11.742188 L 363.605469 363.257812 L 12.089844 363.257812 Z M 12.089844 11.742188 " clip-rule="nonzero"/></clipPath><clipPath id="990cf00193"><path d="M 187.847656 11.742188 C 90.777344 11.742188 12.089844 90.429688 12.089844 187.5 C 12.089844 284.570312 90.777344 363.257812 187.847656 363.257812 C 284.917969 363.257812 363.605469 284.570312 363.605469 187.5 C 363.605469 90.429688 284.917969 11.742188 187.847656 11.742188 Z M 187.847656 11.742188 " clip-rule="nonzero"/></clipPath><clipPath id="5f688e4fc5"><path d="M 300.445312 218.425781 L 363.605469 218.425781 L 363.605469 248.449219 L 300.445312 248.449219 Z M 300.445312 218.425781 " clip-rule="nonzero"/></clipPath><clipPath id="8180cbc404"><path d="M 66.363281 207.648438 L 103.449219 207.648438 L 103.449219 339.464844 L 66.363281 339.464844 Z M 66.363281 207.648438 " clip-rule="nonzero"/></clipPath></defs><g clip-path="url(#fa2f5ac3d6)"><g clip-path="url(#990cf00193)"><path fill="#1a202c" d="M 12.089844 11.742188 L 363.605469 11.742188 L 363.605469 363.257812 L 12.089844 363.257812 Z M 12.089844 11.742188 " fill-opacity="1" fill-rule="nonzero"/></g></g><g fill="#ffffff" fill-opacity="1"><g transform="translate(52.705431, 243.472917)"><g><path d="M 103.625 0 L 50.71875 -61.15625 L 50.71875 0 L 13.546875 0 L 13.546875 -125.96875 L 48.890625 -125.96875 L 101.796875 -63.90625 L 101.796875 -125.96875 L 138.96875 -125.96875 L 138.96875 0 Z M 103.625 0 "/></g></g></g><path stroke-linecap="butt" transform="matrix(0.878793, 0, 0, 0.878793, 108.711501, 59.503395)" fill="none" stroke-linejoin="miter" d="M 151.921212 69.165074 C 170.265805 69.165074 185.338863 72.876665 197.140388 80.304292 C 208.941913 87.731918 214.978249 98.737785 215.249395 113.317446 L 215.249395 115.811102 L 172.114932 115.811102 L 172.114932 114.997664 C 172.114932 110.823791 170.590291 107.347786 167.536563 104.569649 C 164.482835 101.787068 159.83779 100.395777 153.596984 100.395777 C 147.462858 100.395777 142.764473 101.311451 139.510719 103.142798 C 136.25252 104.943031 134.625644 107.161095 134.625644 109.805882 C 134.625644 113.539697 136.848153 116.317834 141.288727 118.149182 C 145.729301 119.944969 152.885781 121.811877 162.753723 123.745461 C 174.284102 126.119101 183.760882 128.594976 191.188508 131.173087 C 198.616135 133.715638 205.110307 137.902846 210.671026 143.73471 C 216.231744 149.566575 219.081001 157.487598 219.218797 167.488891 C 219.218797 184.446638 213.484723 197.026041 202.025464 205.231546 C 190.56176 213.405935 175.248671 217.490908 156.090639 217.490908 C 133.70997 217.490908 116.294386 213.743757 103.852778 206.249455 C 91.437841 198.755153 85.232594 185.495662 85.232594 166.470982 L 128.775999 166.470982 C 128.775999 173.694137 130.642907 178.530318 134.372278 180.970633 C 138.137208 183.379833 143.986853 184.579988 151.921212 184.579988 C 157.753077 184.579988 162.567032 183.953241 166.367523 182.699745 C 170.199129 181.44625 172.114932 178.885919 172.114932 175.018753 C 172.114932 171.524968 169.994658 168.915742 165.75411 167.18663 C 161.518007 165.457517 154.614893 163.608389 145.053658 161.639246 C 133.385483 159.163371 123.722012 156.571925 116.0588 153.856018 C 108.431148 151.144557 101.763619 146.668423 96.06955 140.427616 C 90.371036 134.155695 87.521779 125.679044 87.521779 114.997664 C 87.521779 99.293412 93.593675 87.731918 105.733021 80.304292 C 117.907928 72.876665 133.301028 69.165074 151.921212 69.165074 Z M 151.921212 69.165074 " stroke="#1a202c" stroke-width="31.773985" stroke-opacity="1" stroke-miterlimit="4"/><g fill="#ffffff" fill-opacity="1"><g transform="translate(175.746905, 248.443821)"><g><path d="M 66.46875 -128.171875 C 82.570312 -128.171875 95.8125 -124.90625 106.1875 -118.375 C 116.5625 -111.84375 121.875 -102.164062 122.125 -89.34375 L 122.125 -87.15625 L 84.21875 -87.15625 L 84.21875 -87.890625 C 84.21875 -91.546875 82.875 -94.59375 80.1875 -97.03125 C 77.507812 -99.476562 73.421875 -100.703125 67.921875 -100.703125 C 62.554688 -100.703125 58.4375 -99.90625 55.5625 -98.3125 C 52.695312 -96.726562 51.265625 -94.78125 51.265625 -92.46875 C 51.265625 -89.164062 53.21875 -86.722656 57.125 -85.140625 C 61.03125 -83.554688 67.316406 -81.90625 75.984375 -80.1875 C 86.117188 -78.113281 94.445312 -75.945312 100.96875 -73.6875 C 107.5 -71.4375 113.207031 -67.742188 118.09375 -62.609375 C 122.976562 -57.484375 125.484375 -50.53125 125.609375 -41.75 C 125.609375 -26.851562 120.570312 -15.800781 110.5 -8.59375 C 100.425781 -1.394531 86.96875 2.203125 70.125 2.203125 C 50.46875 2.203125 35.175781 -1.09375 24.25 -7.6875 C 13.332031 -14.28125 7.875 -25.9375 7.875 -42.65625 L 46.140625 -42.65625 C 46.140625 -36.3125 47.785156 -32.070312 51.078125 -29.9375 C 54.378906 -27.800781 59.507812 -26.734375 66.46875 -26.734375 C 71.59375 -26.734375 75.832031 -27.28125 79.1875 -28.375 C 82.539062 -29.476562 84.21875 -31.738281 84.21875 -35.15625 C 84.21875 -38.207031 82.351562 -40.492188 78.625 -42.015625 C 74.90625 -43.546875 68.835938 -45.164062 60.421875 -46.875 C 50.171875 -49.070312 41.6875 -51.359375 34.96875 -53.734375 C 28.257812 -56.117188 22.398438 -60.054688 17.390625 -65.546875 C 12.390625 -71.035156 9.890625 -78.484375 9.890625 -87.890625 C 9.890625 -101.679688 15.226562 -111.84375 25.90625 -118.375 C 36.582031 -124.90625 50.101562 -128.171875 66.46875 -128.171875 Z M 66.46875 -128.171875 "/></g></g></g><g clip-path="url(#5f688e4fc5)"><path fill="#ffffff" d="M 300.445312 218.425781 L 363.652344 218.425781 L 363.652344 248.449219 L 300.445312 248.449219 Z M 300.445312 218.425781 " fill-opacity="1" fill-rule="nonzero"/></g><path stroke-linecap="butt" transform="matrix(0.878793, -0.000000000000000436, 0.000000000000000436, 0.878793, 58.305037, 104.559528)" fill="none" stroke-linejoin="miter" d="M -0.000397331 1.999195 L 65.185804 1.999195 " stroke="#ffffff" stroke-width="4" stroke-opacity="1" stroke-miterlimit="4"/><g clip-path="url(#8180cbc404)"><path fill="#ffffff" d="M 66.363281 207.648438 L 103.449219 207.648438 L 103.449219 339.46875 L 66.363281 339.46875 Z M 66.363281 207.648438 " fill-opacity="1" fill-rule="nonzero"/></g><g fill="#ffffff" fill-opacity="1"><g transform="translate(129.571075, 278.828995)"><g><path d="M 4.796875 -9.90625 L 4.796875 0 L 1.15625 0 L 1.15625 -15.96875 L 4.796875 -15.96875 L 11.15625 -6.0625 L 11.1875 -6.0625 L 11.1875 -15.96875 L 14.828125 -15.96875 L 14.828125 0 L 11.1875 0 L 4.84375 -9.90625 Z M 4.796875 -9.90625 "/></g></g></g><g fill="#ffffff" fill-opacity="1"><g transform="translate(146.810269, 278.828995)"><g><path d="M 9.265625 -15.96875 L 15.71875 0 L 11.8125 0 L 10.625 -3.1875 L 4.546875 -3.1875 L 3.375 0 L -0.546875 0 L 5.90625 -15.96875 Z M 9.390625 -6.390625 L 7.609375 -11.03125 L 7.5625 -11.03125 L 5.78125 -6.390625 Z M 9.390625 -6.390625 "/></g></g></g><g fill="#ffffff" fill-opacity="1"><g transform="translate(163.236886, 278.828995)"><g><path d="M 0.15625 -12.78125 L 0.15625 -15.96875 L 11.390625 -15.96875 L 11.390625 -12.78125 L 7.59375 -12.78125 L 7.59375 0 L 3.953125 0 L 3.953125 -12.78125 Z M 0.15625 -12.78125 "/></g></g></g><g fill="#ffffff" fill-opacity="1"><g transform="translate(176.026242, 278.828995)"><g><path d="M 4.796875 -15.96875 L 4.796875 0 L 1.15625 0 L 1.15625 -15.96875 Z M 4.796875 -15.96875 "/></g></g></g><g fill="#ffffff" fill-opacity="1"><g transform="translate(183.243626, 278.828995)"><g><path d="M 6.15625 0 L -0.546875 -15.96875 L 3.5625 -15.96875 L 7.59375 -5.484375 L 11.609375 -15.96875 L 15.71875 -15.96875 L 9.015625 0 Z M 6.15625 0 "/></g></g></g><g fill="#ffffff" fill-opacity="1"><g transform="translate(199.670245, 278.828995)"><g><path d="M 10.296875 -15.96875 L 10.296875 -12.78125 L 4.796875 -12.78125 L 4.796875 -9.609375 L 10.0625 -9.609375 L 10.0625 -6.40625 L 4.796875 -6.40625 L 4.796875 -3.1875 L 10.296875 -3.1875 L 10.296875 0 L 1.15625 0 L 1.15625 -15.96875 Z M 10.296875 -15.96875 "/></g></g></g><g fill="#ffffff" fill-opacity="1"><g transform="translate(212.150044, 278.828995)"><g/></g></g><g fill="#ffffff" fill-opacity="1"><g transform="translate(218.690281, 278.828995)"><g><path d="M 4.796875 -15.96875 L 4.796875 -3.1875 L 10.296875 -3.1875 L 10.296875 0 L 1.15625 0 L 1.15625 -15.96875 Z M 4.796875 -15.96875 "/></g></g></g><g fill="#ffffff" fill-opacity="1"><g transform="translate(230.879876, 278.828995)"><g><path d="M 15.703125 0 L 10.6875 0 L 4.796875 -6.78125 L 4.796875 0 L 1.15625 0 L 1.15625 -15.96875 L 4.796875 -15.96875 L 4.796875 -9.453125 L 10.28125 -15.96875 L 14.6875 -15.96875 L 8.265625 -8.40625 Z M 15.703125 0 "/></g></g></g></svg>